<?xml version="1.0" standalone="no"?>
<!DOCTYPE svg PUBLIC "-//W3C//DTD SVG 20010904//EN"
 "http://www.w3.org/TR/2001/REC-SVG-20010904/DTD/svg10.dtd">
<svg version="1.0" xmlns="http://www.w3.org/2000/svg"
 width="16.000000pt" height="16.000000pt" viewBox="0 0 16.000000 16.000000"
 preserveAspectRatio="xMidYMid meet">

<g transform="translate(0.000000,16.000000) scale(0.100000,-0.100000)"
fill="#000000" stroke="none">
<path d="M14 137 c-3 -8 -4 -39 -2 -68 l3 -54 65 0 65 0 0 65 0 65 -63 3 c-47
2 -64 -1 -68 -11z m109 -82 l18 -25 -62 0 c-61 0 -62 0 -44 20 14 15 21 17 31
9 11 -9 15 -7 20 5 8 22 16 20 37 -9z"/>
</g>
</svg>
